<mxfile host="65bd71144e">
    <diagram id="uFIAbjixQS4W2lFqBibt" name="Page-1">
        <mxGraphModel dx="936" dy="553" grid="1" gridSize="10" guides="1" tooltips="1" connect="1" arrows="1" fold="1" page="1" pageScale="1" pageWidth="827" pageHeight="1169" math="0" shadow="0">
            <root>
                <mxCell id="0"/>
                <mxCell id="1" parent="0"/>
                <mxCell id="2" value="System Architecture" style="text;html=1;strokeColor=none;fillColor=none;align=center;verticalAlign=middle;whiteSpace=wrap;rounded=0;fontStyle=1;fontSize=23;" vertex="1" parent="1">
                    <mxGeometry x="10" y="10" width="280" height="50" as="geometry"/>
                </mxCell>
                <mxCell id="3" value="user" style="shape=umlActor;verticalLabelPosition=bottom;verticalAlign=top;html=1;outlineConnect=0;fontSize=23;" vertex="1" parent="1">
                    <mxGeometry x="60" y="110" width="30" height="60" as="geometry"/>
                </mxCell>
                <mxCell id="4" value="verifier" style="shape=umlActor;verticalLabelPosition=bottom;verticalAlign=top;html=1;outlineConnect=0;fontSize=23;" vertex="1" parent="1">
                    <mxGeometry x="60" y="270" width="30" height="60" as="geometry"/>
                </mxCell>
                <mxCell id="7" value="front&lt;br&gt;end" style="rounded=0;whiteSpace=wrap;html=1;fontSize=23;fillColor=#e1d5e7;strokeColor=#9673a6;fontColor=#000000;fontStyle=1" vertex="1" parent="1">
                    <mxGeometry x="230" y="100" width="100" height="270" as="geometry"/>
                </mxCell>
                <mxCell id="8" value="Sindri" style="shape=cylinder3;whiteSpace=wrap;html=1;boundedLbl=1;backgroundOutline=1;size=15;fontSize=23;fillColor=#f8cecc;strokeColor=#b85450;fontColor=#000000;fontStyle=1" vertex="1" parent="1">
                    <mxGeometry x="530" y="100" width="90" height="100" as="geometry"/>
                </mxCell>
                <mxCell id="9" value="" style="ellipse;shape=cloud;whiteSpace=wrap;html=1;fontSize=23;fillColor=#d5e8d4;strokeColor=#82b366;" vertex="1" parent="1">
                    <mxGeometry x="420" y="210" width="310" height="200" as="geometry"/>
                </mxCell>
                <mxCell id="10" value="Blockchain" style="text;html=1;strokeColor=none;fillColor=none;align=center;verticalAlign=middle;whiteSpace=wrap;rounded=0;fontSize=23;fontColor=#000000;fontStyle=1" vertex="1" parent="1">
                    <mxGeometry x="513" y="250" width="130" height="30" as="geometry"/>
                </mxCell>
                <mxCell id="11" value="Smart&lt;br&gt;Contract" style="shape=cube;whiteSpace=wrap;html=1;boundedLbl=1;backgroundOutline=1;darkOpacity=0.05;darkOpacity2=0.1;fontSize=23;fillColor=#ffe6cc;strokeColor=#d79b00;fontColor=#000000;fontStyle=1" vertex="1" parent="1">
                    <mxGeometry x="518" y="290" width="120" height="80" as="geometry"/>
                </mxCell>
                <mxCell id="13" value="" style="endArrow=classic;startArrow=classic;html=1;fontSize=23;fontColor=#000000;" edge="1" parent="1">
                    <mxGeometry width="50" height="50" relative="1" as="geometry">
                        <mxPoint x="110" y="149.5" as="sourcePoint"/>
                        <mxPoint x="210" y="150" as="targetPoint"/>
                    </mxGeometry>
                </mxCell>
                <mxCell id="14" value="" style="endArrow=classic;startArrow=classic;html=1;fontSize=23;fontColor=#000000;" edge="1" parent="1">
                    <mxGeometry width="50" height="50" relative="1" as="geometry">
                        <mxPoint x="110" y="309.5" as="sourcePoint"/>
                        <mxPoint x="210" y="310" as="targetPoint"/>
                    </mxGeometry>
                </mxCell>
                <mxCell id="15" value="request score" style="text;html=1;strokeColor=none;fillColor=none;align=center;verticalAlign=middle;whiteSpace=wrap;rounded=0;fontStyle=1;fontSize=15;" vertex="1" parent="1">
                    <mxGeometry x="100" y="260" width="120" height="40" as="geometry"/>
                </mxCell>
                <mxCell id="16" value="request &lt;br&gt;generate" style="text;html=1;strokeColor=none;fillColor=none;align=center;verticalAlign=middle;whiteSpace=wrap;rounded=0;fontStyle=1;fontSize=15;" vertex="1" parent="1">
                    <mxGeometry x="115" y="100" width="90" height="40" as="geometry"/>
                </mxCell>
                <mxCell id="17" value="" style="endArrow=classic;html=1;fontSize=15;fontColor=#000000;exitX=1.03;exitY=0.115;exitDx=0;exitDy=0;entryX=0;entryY=0;entryDx=0;entryDy=32.5;entryPerimeter=0;exitPerimeter=0;" edge="1" parent="1">
                    <mxGeometry width="50" height="50" relative="1" as="geometry">
                        <mxPoint x="333" y="138.04999999999995" as="sourcePoint"/>
                        <mxPoint x="530" y="139.5" as="targetPoint"/>
                    </mxGeometry>
                </mxCell>
                <mxCell id="18" value="request &lt;br&gt;proof" style="text;html=1;strokeColor=none;fillColor=none;align=center;verticalAlign=middle;whiteSpace=wrap;rounded=0;fontStyle=1;fontSize=15;" vertex="1" parent="1">
                    <mxGeometry x="390" y="83" width="90" height="40" as="geometry"/>
                </mxCell>
                <mxCell id="19" value="" style="endArrow=classic;html=1;fontSize=15;fontColor=#000000;entryX=0;entryY=0;entryDx=0;entryDy=32.5;entryPerimeter=0;" edge="1" parent="1">
                    <mxGeometry width="50" height="50" relative="1" as="geometry">
                        <mxPoint x="530" y="160" as="sourcePoint"/>
                        <mxPoint x="330" y="159.5" as="targetPoint"/>
                    </mxGeometry>
                </mxCell>
                <mxCell id="20" value="result&lt;br&gt;vkey&amp;amp;proofs" style="text;html=1;strokeColor=none;fillColor=none;align=center;verticalAlign=middle;whiteSpace=wrap;rounded=0;fontStyle=1;fontSize=15;" vertex="1" parent="1">
                    <mxGeometry x="385" y="170" width="100" height="40" as="geometry"/>
                </mxCell>
                <mxCell id="21" value="" style="endArrow=classic;html=1;fontSize=15;fontColor=#000000;exitX=1.03;exitY=0.115;exitDx=0;exitDy=0;entryX=-0.025;entryY=0.288;entryDx=0;entryDy=0;entryPerimeter=0;exitPerimeter=0;" edge="1" parent="1" target="11">
                    <mxGeometry width="50" height="50" relative="1" as="geometry">
                        <mxPoint x="330" y="299.99999999999994" as="sourcePoint"/>
                        <mxPoint x="527" y="301.45" as="targetPoint"/>
                    </mxGeometry>
                </mxCell>
                <mxCell id="22" value="" style="endArrow=classic;html=1;fontSize=15;fontColor=#000000;entryX=1.03;entryY=0.83;entryDx=0;entryDy=0;entryPerimeter=0;exitX=-0.033;exitY=0.563;exitDx=0;exitDy=0;exitPerimeter=0;" edge="1" parent="1" source="11" target="7">
                    <mxGeometry width="50" height="50" relative="1" as="geometry">
                        <mxPoint x="540" y="170" as="sourcePoint"/>
                        <mxPoint x="340" y="169.5" as="targetPoint"/>
                    </mxGeometry>
                </mxCell>
                <mxCell id="23" value="request &lt;br&gt;verify" style="text;html=1;strokeColor=none;fillColor=none;align=center;verticalAlign=middle;whiteSpace=wrap;rounded=0;fontStyle=1;fontSize=15;" vertex="1" parent="1">
                    <mxGeometry x="340" y="260" width="90" height="40" as="geometry"/>
                </mxCell>
                <mxCell id="24" value="return&lt;br&gt;result" style="text;html=1;strokeColor=none;fillColor=none;align=center;verticalAlign=middle;whiteSpace=wrap;rounded=0;fontStyle=1;fontSize=15;" vertex="1" parent="1">
                    <mxGeometry x="340" y="330" width="90" height="40" as="geometry"/>
                </mxCell>
                <mxCell id="25" value="verify &amp;amp; execute&lt;br style=&quot;font-size: 17px;&quot;&gt;somethings" style="shape=callout;whiteSpace=wrap;html=1;perimeter=calloutPerimeter;fontSize=17;flipH=0;flipV=1;position2=0.75;base=30;fillColor=#f5f5f5;strokeColor=#666666;fontColor=#333333;fontStyle=1;align=left;" vertex="1" parent="1">
                    <mxGeometry x="440" y="370" width="150" height="90" as="geometry"/>
                </mxCell>
            </root>
        </mxGraphModel>
    </diagram>
</mxfile>